<?xml version="1.0" encoding="UTF-8" standalone="no"?>
<svg
   xmlns:dc="http://purl.org/dc/elements/1.1/"
   xmlns:cc="http://creativecommons.org/ns#"
   xmlns:rdf="http://www.w3.org/1999/02/22-rdf-syntax-ns#"
   xmlns:svg="http://www.w3.org/2000/svg"
   xmlns="http://www.w3.org/2000/svg"
   xmlns:sodipodi="http://sodipodi.sourceforge.net/DTD/sodipodi-0.dtd"
   xmlns:inkscape="http://www.inkscape.org/namespaces/inkscape"
   width="27px"
   height="26px"
   viewBox="0 0 27 26"
   version="1.1"
   id="svg4158"
   inkscape:version="0.91 r13725"
   sodipodi:docname="plus-icon.svg">
  <metadata
     id="metadata4173">
    <rdf:RDF>
      <cc:Work
         rdf:about="">
        <dc:format>image/svg+xml</dc:format>
        <dc:type
           rdf:resource="http://purl.org/dc/dcmitype/StillImage" />
      </cc:Work>
    </rdf:RDF>
  </metadata>
  <sodipodi:namedview
     pagecolor="#ffffff"
     bordercolor="#666666"
     borderopacity="1"
     objecttolerance="10"
     gridtolerance="10"
     guidetolerance="10"
     inkscape:pageopacity="0"
     inkscape:pageshadow="2"
     inkscape:window-width="883"
     inkscape:window-height="750"
     id="namedview4171"
     showgrid="false"
     inkscape:zoom="9.0769231"
     inkscape:cx="16.199153"
     inkscape:cy="10.135593"
     inkscape:window-x="2456"
     inkscape:window-y="110"
     inkscape:window-maximized="0"
     inkscape:current-layer="svg4158" />
  <!-- Generator: sketchtool 3.6.1 (26313) - http://www.bohemiancoding.com/sketch -->
  <title
     id="title4160">0A6D1E58-A6C4-48D1-94E6-79A2BB65EEE0</title>
  <desc
     id="desc4162">Created with sketchtool.</desc>
  <defs
     id="defs4164" />
  <g
     id="Index"
     stroke="none"
     stroke-width="1"
     fill="none"
     fill-rule="evenodd"
     style="fill:#000000;fill-opacity:1">
    <g
       id="Desktop-HD"
       transform="translate(-40.000000, -170.000000)"
       fill="#FFFFFF"
       style="fill:#000000;fill-opacity:1">
      <g
         id="plus-icon"
         transform="translate(40.000000, 170.000000)"
         style="fill:#000000;fill-opacity:1">
        <path
           d="M13.1551402,25.8670013 C20.4205235,25.8670013 26.3102804,20.0764758 26.3102804,12.9335006 C26.3102804,5.79052547 20.4205235,0 13.1551402,0 C5.88975688,0 0,5.79052547 0,12.9335006 C0,20.0764758 5.88975688,25.8670013 13.1551402,25.8670013 Z M13.1551402,22.99289 C18.8059939,22.99289 23.3869159,18.489148 23.3869159,12.9335006 C23.3869159,7.37785328 18.8059939,2.87411125 13.1551402,2.87411125 C7.5042865,2.87411125 2.92336449,7.37785328 2.92336449,12.9335006 C2.92336449,18.489148 7.5042865,22.99289 13.1551402,22.99289 Z"
           id="Oval-74-Copy"
           style="fill:#000000;fill-opacity:1" />
        <path
           d="M14.6168224,11.4718184 L14.6168224,7.18527813 L11.6934579,7.18527813 L11.6934579,11.4718184 L7.40691769,11.4718184 L7.40691769,14.3951829 L11.6934579,14.3951829 L11.6934579,18.6817231 L14.6168224,18.6817231 L14.6168224,14.3951829 L18.9033627,14.3951829 L18.9033627,11.4718184 L14.6168224,11.4718184 Z"
           id="Rectangle-110"
           style="fill:#000000;fill-opacity:1" />
      </g>
    </g>
  </g>
</svg>
